<svg width="18" height="17" viewBox="0 0 18 17" fill="none" xmlns="http://www.w3.org/2000/svg">
<path d="M15.875 5.28625H13.1344C13.1648 5.26047 13.1961 5.23547 13.2258 5.20812C13.4631 4.99732 13.6543 4.73983 13.7875 4.45176C13.9207 4.16368 13.9931 3.85121 14 3.5339C14.0103 3.18677 13.9495 2.84121 13.8213 2.51842C13.6932 2.19564 13.5005 1.90245 13.255 1.65684C13.0094 1.41124 12.7163 1.21842 12.3936 1.0902C12.0708 0.961985 11.7253 0.901088 11.3781 0.911247C11.0607 0.918084 10.7481 0.990376 10.4598 1.1236C10.1716 1.25682 9.91401 1.4481 9.70312 1.68547C9.41131 2.02366 9.17408 2.40534 9 2.81672C8.82592 2.40534 8.58869 2.02366 8.29688 1.68547C8.08599 1.4481 7.82837 1.25682 7.54015 1.1236C7.25193 0.990376 6.93932 0.918084 6.62187 0.911247C6.27474 0.901088 5.9292 0.961985 5.60645 1.0902C5.2837 1.21842 4.99057 1.41124 4.74504 1.65684C4.49951 1.90245 4.30677 2.19564 4.17865 2.51842C4.05053 2.84121 3.98974 3.18677 4 3.5339C4.00694 3.85121 4.07929 4.16368 4.2125 4.45176C4.34572 4.73983 4.53695 4.99732 4.77422 5.20812C4.80391 5.2339 4.83516 5.2589 4.86563 5.28625H2.125C1.79348 5.28625 1.47554 5.41794 1.24112 5.65236C1.0067 5.88678 0.875 6.20473 0.875 6.53625V9.03625C0.875 9.36777 1.0067 9.68571 1.24112 9.92013C1.47554 10.1546 1.79348 10.2862 2.125 10.2862V15.2862C2.125 15.6178 2.2567 15.9357 2.49112 16.1701C2.72554 16.4046 3.04348 16.5362 3.375 16.5362H8.0625C8.14538 16.5362 8.22487 16.5033 8.28347 16.4447C8.34208 16.3861 8.375 16.3066 8.375 16.2237V9.03625H2.125V6.53625H8.375V9.03625H9.625V6.53625H15.875V9.03625H9.625V16.2237C9.625 16.3066 9.65792 16.3861 9.71653 16.4447C9.77513 16.5033 9.85462 16.5362 9.9375 16.5362H14.625C14.9565 16.5362 15.2745 16.4046 15.5089 16.1701C15.7433 15.9357 15.875 15.6178 15.875 15.2862V10.2862C16.2065 10.2862 16.5245 10.1546 16.7589 9.92013C16.9933 9.68571 17.125 9.36777 17.125 9.03625V6.53625C17.125 6.20473 16.9933 5.88678 16.7589 5.65236C16.5245 5.41794 16.2065 5.28625 15.875 5.28625ZM5.60234 4.27062C5.49306 4.17166 5.40542 4.05118 5.34492 3.91674C5.28442 3.78229 5.25237 3.63679 5.25078 3.48937C5.24683 3.31664 5.27739 3.14486 5.34068 2.98409C5.40396 2.82332 5.4987 2.67679 5.61933 2.5531C5.73997 2.42941 5.88408 2.33104 6.04321 2.26375C6.20235 2.19647 6.37332 2.16162 6.54609 2.16125H6.58438C6.7318 2.16284 6.87729 2.19489 7.01174 2.25539C7.14618 2.31589 7.26667 2.40353 7.36563 2.51281C8.02109 3.25343 8.25234 4.48156 8.33359 5.24093C7.57109 5.16047 6.34375 4.92922 5.60234 4.27062ZM12.3992 4.27062C11.6578 4.92687 10.4273 5.15812 9.66484 5.23937C9.75781 4.41828 10.0156 3.21593 10.6406 2.51359C10.7396 2.40431 10.8601 2.31667 10.9945 2.25617C11.129 2.19567 11.2745 2.16362 11.4219 2.16203H11.4602C11.6329 2.16311 11.8038 2.19867 11.9626 2.26662C12.1215 2.33457 12.2652 2.43354 12.3854 2.55774C12.5055 2.68195 12.5996 2.82888 12.6622 2.98992C12.7248 3.15097 12.7547 3.32289 12.75 3.49562C12.7475 3.64204 12.7149 3.78638 12.6543 3.91969C12.5937 4.053 12.5063 4.17245 12.3977 4.27062H12.3992Z" fill="url(#paint0_linear_3501_17130)"/>
<defs>
<linearGradient id="paint0_linear_3501_17130" x1="0.875" y1="5.84734" x2="12.8124" y2="18.3449" gradientUnits="userSpaceOnUse">
<stop stop-color="#FF3720"/>
<stop offset="1" stop-color="#EB2852"/>
</linearGradient>
</defs>
</svg>
