<svg width="101" height="100" viewBox="0 0 101 100" fill="none" xmlns="http://www.w3.org/2000/svg">
<g clip-path="url(#clip0_336_1795)">
<path d="M54.3333 0H49.6667C48.1939 0 47 1.79086 47 4V96C47 98.2091 48.1939 100 49.6667 100H54.3333C55.8061 100 57 98.2091 57 96V4C57 1.79086 55.8061 0 54.3333 0Z" fill="#017DF8"/>
<path d="M100.021 49.6116L100.034 44.945C100.038 43.4722 98.2502 42.2733 96.041 42.2672L4.04139 42.0111C1.83226 42.0049 0.0380795 43.1938 0.0339796 44.6666L0.0209885 49.3332C0.0168887 50.806 1.80442 52.0049 4.01355 52.011L96.0132 52.2671C98.2223 52.2733 100.017 51.0844 100.021 49.6116Z" fill="#017DF8"/>
</g>
<defs>
<clipPath id="clip0_336_1795">
<rect width="101" height="100" fill="white"/>
</clipPath>
</defs>
</svg>
